<svg xmlns="http://www.w3.org/2000/svg" width="720" height="900" viewBox="0 0 720 900">
<defs><linearGradient id="bg" x1="0" x2="1"><stop offset="0" stop-color="#e0f2fe"/><stop offset="1" stop-color="#f8fafc"/></linearGradient><filter id="s"><feDropShadow dx="0" dy="18" stdDeviation="22" flood-opacity=".22"/></filter></defs>
<rect width="720" height="900" fill="url(#bg)"/>
<circle cx="86" cy="162" r="80" fill="#16a34a" opacity=".13"/>
<circle cx="633" cy="702" r="138" fill="#f59e0b" opacity=".13"/>
<rect x="100" y="99" width="518" height="648" rx="34" fill="#fff" opacity=".48"/>
<g filter="url(#s)" transform="translate(49.5,153.0) scale(1.15)">
<path d="M235 10 L120 75 L145 470 L390 470 L410 75 Z" fill="#e5e7eb"/>
<path d="M245 10 L410 75 L505 12 L620 78 L595 470 L350 470 L335 75 Z" fill="#1e40af"/>
<path d="M205 50 Q255 105 310 50" fill="none" stroke="#fff" stroke-width="24" opacity=".75"/>
<path d="M445 55 Q495 110 550 55" fill="none" stroke="#fff" stroke-width="24" opacity=".75"/>
<g opacity=".9" fill="#fff"><circle cx="190" cy="165" r="20"/><circle cx="305" cy="245" r="15"/><circle cx="215" cy="360" r="18"/><circle cx="470" cy="170" r="18"/><circle cx="545" cy="290" r="16"/><circle cx="455" cy="390" r="20"/></g>
</g>
</svg>