<svg xmlns="http://www.w3.org/2000/svg" viewBox="0 0 24 24" fill="white"><path d="M20 3.9A11 11 0 0 0 3.2 18.1L2 22l4-1.1A11 11 0 1 0 20 3.9zm-8 16.1c-1.8 0-3.6-.5-5.1-1.5l-.4-.2-2.4.6.6-2.3-.2-.4A8 8 0 1 1 12 20zm4.4-5.9c-.2-.1-1.3-.6-1.5-.7-.2-.1-.4-.1-.5.1l-.7.8c-.1.2-.3.2-.5.1-1.4-.7-2.5-1.7-3.3-3.1-.1-.2 0-.4.1-.5l.5-.6c.1-.2.2-.3.1-.5l-.7-1.6c-.1-.3-.3-.3-.5-.3h-.4c-.2 0-.5.1-.7.3-.6.6-.9 1.4-.9 2.2.1.9.5 1.8 1.1 2.5 1.6 2.2 3.9 3.8 6.5 4.5.7.2 1.5.2 2.2 0 .7-.2 1.4-.7 1.6-1.4.2-.5.2-.9.1-1z"/></svg>