<svg xmlns="http://www.w3.org/2000/svg" width="1200" height="800" viewBox="0 0 1200 800">
<defs><linearGradient id="g" x1="0" x2="1"><stop offset="0" stop-color="#fff7ed"/><stop offset="1" stop-color="#e0f2fe"/></linearGradient><filter id="s"><feDropShadow dx="0" dy="14" stdDeviation="18" flood-opacity=".22"/></filter></defs>
<rect width="1200" height="800" fill="url(#g)"/><rect x="0" y="0" width="1200" height="800" fill="#064e3b" opacity=".12"/>
<circle cx="170" cy="135" r="70" fill="#16a34a" opacity=".15"/><circle cx="1040" cy="690" r="110" fill="#f59e0b" opacity=".14"/>
<rect x="120" y="90" width="960" height="620" rx="34" fill="#fff" opacity=".58"/>
<g filter="url(#s)">
<path d="M390 180 L290 235 L310 665 L535 665 L555 235 Z" fill="#f59e0b"/><path d="M390 180 L555 235 L640 184 L740 240 L720 665 L495 665 L480 235 Z" fill="#064e3b"/>
<path d="M365 220 Q405 265 450 220" fill="none" stroke="#fff" stroke-width="22" opacity=".75"/><path d="M585 225 Q625 270 670 225" fill="none" stroke="#fff" stroke-width="22" opacity=".75"/>
<g opacity=".85" fill="#fff"><circle cx="350" cy="335" r="20"/><circle cx="452" cy="410" r="15"/><circle cx="365" cy="525" r="18"/><circle cx="610" cy="350" r="18"/><circle cx="675" cy="465" r="16"/><circle cx="590" cy="560" r="20"/></g>
</g>
<text x="600" y="745" text-anchor="middle" font-family="Arial, sans-serif" font-size="64" font-weight="900" fill="#061827">Leafy Style</text>
</svg>